<svg width="104" height="34" viewBox="0 0 104 34" fill="none" xmlns="http://www.w3.org/2000/svg">
<g clip-path="url(#clip0_19_191)">
<path d="M33.4914 21.1111C31.2201 30.2231 21.9882 35.7621 12.8892 33.4906C3.7769 31.2193 -1.76217 21.9878 0.509318 12.8889C2.78068 3.7769 11.9992 -1.76217 21.1115 0.509319C30.2104 2.7674 35.7629 11.9989 33.4914 21.1111Z" fill="url(#paint0_linear_19_191)"/>
<path d="M25.0943 14.8817C25.4263 12.6239 23.7131 11.402 21.349 10.5918L22.1193 7.52388L20.2599 7.05903L19.5162 10.0473C19.0248 9.92778 18.5201 9.80825 18.0154 9.702L18.7592 6.70044L16.8998 6.2356L16.1427 9.29028C15.731 9.19731 15.3326 9.10435 14.9474 9.01138V8.9981L12.3709 8.3606L11.8795 10.3528C11.8795 10.3528 13.2607 10.6715 13.2342 10.6848C13.9912 10.8708 14.124 11.3754 14.0974 11.7739L13.2209 15.2668C13.274 15.2801 13.3404 15.2934 13.4201 15.3333C13.3537 15.32 13.2873 15.3067 13.2209 15.2801L11.999 20.1676C11.906 20.3934 11.667 20.7387 11.149 20.6059C11.1623 20.6325 9.79431 20.2739 9.79431 20.2739L8.86462 22.4122L11.2951 23.0231C11.7467 23.1426 12.1849 23.2489 12.6232 23.3684L11.8529 26.4629L13.7123 26.9278L14.4826 23.8598C14.9873 23.9926 15.492 24.1254 15.9701 24.245L15.2131 27.2997L17.0724 27.7645L17.8427 24.67C21.0302 25.2676 23.4209 25.0286 24.417 22.1465C25.2271 19.8356 24.3771 18.4942 22.7037 17.6176C23.9388 17.3387 24.8552 16.5286 25.0943 14.8817ZM20.831 20.8583C20.2599 23.1692 16.3552 21.9208 15.0935 21.602L16.1162 17.4981C17.3779 17.8168 21.442 18.4411 20.831 20.8583ZM21.4154 14.8418C20.8842 16.9536 17.6435 15.8778 16.5943 15.6122L17.524 11.8934C18.5732 12.159 21.9599 12.6504 21.4154 14.8418Z" fill="white"/>
</g>
<path d="M41.0726 23V10.4H46.7246C48.1766 10.4 49.2926 10.694 50.0726 11.282C50.8526 11.858 51.2426 12.65 51.2426 13.658C51.2426 14.342 51.0866 14.918 50.7746 15.386C50.4746 15.854 50.0666 16.214 49.5506 16.466C49.0346 16.718 48.4766 16.844 47.8766 16.844L48.2006 16.304C48.9206 16.304 49.5566 16.43 50.1086 16.682C50.6606 16.934 51.0986 17.306 51.4226 17.798C51.7466 18.278 51.9086 18.878 51.9086 19.598C51.9086 20.678 51.5006 21.518 50.6846 22.118C49.8806 22.706 48.6806 23 47.0846 23H41.0726ZM42.8726 21.542H47.0126C48.0086 21.542 48.7706 21.374 49.2986 21.038C49.8266 20.702 50.0906 20.174 50.0906 19.454C50.0906 18.722 49.8266 18.188 49.2986 17.852C48.7706 17.516 48.0086 17.348 47.0126 17.348H42.7106V15.89H46.5626C47.4746 15.89 48.1826 15.722 48.6866 15.386C49.1906 15.05 49.4426 14.546 49.4426 13.874C49.4426 13.202 49.1906 12.698 48.6866 12.362C48.1826 12.026 47.4746 11.858 46.5626 11.858H42.8726V21.542ZM54.4437 23V13.46H56.1717V23H54.4437ZM55.3077 11.624C54.9717 11.624 54.6897 11.516 54.4617 11.3C54.2457 11.084 54.1377 10.82 54.1377 10.508C54.1377 10.184 54.2457 9.914 54.4617 9.698C54.6897 9.482 54.9717 9.374 55.3077 9.374C55.6437 9.374 55.9197 9.482 56.1357 9.698C56.3637 9.902 56.4777 10.16 56.4777 10.472C56.4777 10.796 56.3697 11.072 56.1537 11.3C55.9377 11.516 55.6557 11.624 55.3077 11.624ZM62.747 23.108C61.787 23.108 61.043 22.85 60.515 22.334C59.987 21.818 59.723 21.08 59.723 20.12V11.372H61.451V20.048C61.451 20.564 61.577 20.96 61.829 21.236C62.093 21.512 62.465 21.65 62.945 21.65C63.485 21.65 63.935 21.5 64.295 21.2L64.835 22.442C64.571 22.67 64.253 22.838 63.881 22.946C63.521 23.054 63.143 23.108 62.747 23.108ZM58.103 14.882V13.46H64.187V14.882H58.103ZM70.7657 23.108C69.7937 23.108 68.9237 22.898 68.1557 22.478C67.3997 22.058 66.8057 21.482 66.3737 20.75C65.9417 20.018 65.7257 19.178 65.7257 18.23C65.7257 17.282 65.9417 16.442 66.3737 15.71C66.8057 14.978 67.3997 14.408 68.1557 14C68.9237 13.58 69.7937 13.37 70.7657 13.37C71.6297 13.37 72.3977 13.544 73.0697 13.892C73.7537 14.228 74.2817 14.732 74.6537 15.404L73.3397 16.25C73.0277 15.782 72.6437 15.44 72.1877 15.224C71.7437 14.996 71.2637 14.882 70.7477 14.882C70.1237 14.882 69.5657 15.02 69.0737 15.296C68.5817 15.572 68.1917 15.962 67.9037 16.466C67.6157 16.958 67.4717 17.546 67.4717 18.23C67.4717 18.914 67.6157 19.508 67.9037 20.012C68.1917 20.516 68.5817 20.906 69.0737 21.182C69.5657 21.458 70.1237 21.596 70.7477 21.596C71.2637 21.596 71.7437 21.488 72.1877 21.272C72.6437 21.044 73.0277 20.696 73.3397 20.228L74.6537 21.056C74.2817 21.716 73.7537 22.226 73.0697 22.586C72.3977 22.934 71.6297 23.108 70.7657 23.108ZM80.8363 23.108C79.8763 23.108 79.0243 22.898 78.2803 22.478C77.5363 22.058 76.9483 21.482 76.5163 20.75C76.0843 20.006 75.8683 19.166 75.8683 18.23C75.8683 17.282 76.0843 16.442 76.5163 15.71C76.9483 14.978 77.5363 14.408 78.2803 14C79.0243 13.58 79.8763 13.37 80.8363 13.37C81.7843 13.37 82.6303 13.58 83.3743 14C84.1303 14.408 84.7183 14.978 85.1383 15.71C85.5703 16.43 85.7863 17.27 85.7863 18.23C85.7863 19.178 85.5703 20.018 85.1383 20.75C84.7183 21.482 84.1303 22.058 83.3743 22.478C82.6303 22.898 81.7843 23.108 80.8363 23.108ZM80.8363 21.596C81.4483 21.596 81.9943 21.458 82.4743 21.182C82.9663 20.906 83.3503 20.516 83.6263 20.012C83.9023 19.496 84.0403 18.902 84.0403 18.23C84.0403 17.546 83.9023 16.958 83.6263 16.466C83.3503 15.962 82.9663 15.572 82.4743 15.296C81.9943 15.02 81.4483 14.882 80.8363 14.882C80.2243 14.882 79.6783 15.02 79.1983 15.296C78.7183 15.572 78.3343 15.962 78.0463 16.466C77.7583 16.958 77.6143 17.546 77.6143 18.23C77.6143 18.902 77.7583 19.496 78.0463 20.012C78.3343 20.516 78.7183 20.906 79.1983 21.182C79.6783 21.458 80.2243 21.596 80.8363 21.596ZM88.1761 23V13.46H89.9041V23H88.1761ZM89.0401 11.624C88.7041 11.624 88.4221 11.516 88.1941 11.3C87.9781 11.084 87.8701 10.82 87.8701 10.508C87.8701 10.184 87.9781 9.914 88.1941 9.698C88.4221 9.482 88.7041 9.374 89.0401 9.374C89.3761 9.374 89.6521 9.482 89.8681 9.698C90.0961 9.902 90.2101 10.16 90.2101 10.472C90.2101 10.796 90.1021 11.072 89.8861 11.3C89.6701 11.516 89.3881 11.624 89.0401 11.624ZM98.2974 13.37C99.0774 13.37 99.7614 13.52 100.349 13.82C100.949 14.12 101.417 14.576 101.753 15.188C102.089 15.8 102.257 16.574 102.257 17.51V23H100.529V17.708C100.529 16.784 100.301 16.088 99.8454 15.62C99.4014 15.152 98.7714 14.918 97.9554 14.918C97.3434 14.918 96.8094 15.038 96.3534 15.278C95.8974 15.518 95.5434 15.872 95.2914 16.34C95.0514 16.808 94.9314 17.39 94.9314 18.086V23H93.2034V13.46H94.8594V16.034L94.5894 15.35C94.9014 14.726 95.3814 14.24 96.0294 13.892C96.6774 13.544 97.4334 13.37 98.2974 13.37Z" fill="white"/>
<defs>
<linearGradient id="paint0_linear_19_191" x1="16.9908" y1="-0.00815999" x2="16.9908" y2="33.9966" gradientUnits="userSpaceOnUse">
<stop stop-color="#F9AA4B"/>
<stop offset="1" stop-color="#F7931A"/>
</linearGradient>
<clipPath id="clip0_19_191">
<rect width="34" height="34" fill="white"/>
</clipPath>
</defs>
</svg>
