<svg width="129" height="34" viewBox="0 0 129 34" fill="none" xmlns="http://www.w3.org/2000/svg">
<path d="M40.528 14.8751H47.008V16.4051H40.528V14.8751ZM40.69 20.4731H48.034V22.0391H38.89V9.43906H47.782V11.0051H40.69V20.4731ZM53.7617 22.1471C52.8017 22.1471 52.0577 21.8891 51.5297 21.3731C51.0017 20.8571 50.7377 20.1191 50.7377 19.1591V10.4111H52.4657V19.0871C52.4657 19.6031 52.5917 19.9991 52.8437 20.2751C53.1077 20.5511 53.4797 20.6891 53.9597 20.6891C54.4997 20.6891 54.9497 20.5391 55.3097 20.2391L55.8497 21.4811C55.5857 21.7091 55.2677 21.8771 54.8957 21.9851C54.5357 22.0931 54.1577 22.1471 53.7617 22.1471ZM49.1177 13.9211V12.4991H55.2017V13.9211H49.1177ZM63.0328 12.4091C63.8128 12.4091 64.4968 12.5591 65.0848 12.8591C65.6848 13.1591 66.1528 13.6151 66.4888 14.2271C66.8248 14.8391 66.9928 15.6131 66.9928 16.5491V22.0391H65.2648V16.7471C65.2648 15.8231 65.0368 15.1271 64.5808 14.6591C64.1368 14.1911 63.5068 13.9571 62.6908 13.9571C62.0788 13.9571 61.5448 14.0771 61.0888 14.3171C60.6328 14.5571 60.2788 14.9111 60.0268 15.3791C59.7868 15.8471 59.6668 16.4291 59.6668 17.1251V22.0391H57.9388V8.68306H59.6668V15.0731L59.3248 14.3891C59.6368 13.7651 60.1168 13.2791 60.7648 12.9311C61.4128 12.5831 62.1688 12.4091 63.0328 12.4091ZM74.4387 22.1471C73.4187 22.1471 72.5187 21.9371 71.7387 21.5171C70.9707 21.0971 70.3707 20.5211 69.9387 19.7891C69.5187 19.0571 69.3087 18.2171 69.3087 17.2691C69.3087 16.3211 69.5127 15.4811 69.9207 14.7491C70.3407 14.0171 70.9107 13.4471 71.6307 13.0391C72.3627 12.6191 73.1847 12.4091 74.0967 12.4091C75.0207 12.4091 75.8367 12.6131 76.5447 13.0211C77.2527 13.4291 77.8047 14.0051 78.2007 14.7491C78.6087 15.4811 78.8127 16.3391 78.8127 17.3231C78.8127 17.3951 78.8067 17.4791 78.7947 17.5751C78.7947 17.6711 78.7887 17.7611 78.7767 17.8451H70.6587V16.6031H77.8767L77.1747 17.0351C77.1867 16.4231 77.0607 15.8771 76.7967 15.3971C76.5327 14.9171 76.1667 14.5451 75.6987 14.2811C75.2427 14.0051 74.7087 13.8671 74.0967 13.8671C73.4967 13.8671 72.9627 14.0051 72.4947 14.2811C72.0267 14.5451 71.6607 14.9231 71.3967 15.4151C71.1327 15.8951 71.0007 16.4471 71.0007 17.0711V17.3591C71.0007 17.9951 71.1447 18.5651 71.4327 19.0691C71.7327 19.5611 72.1467 19.9451 72.6747 20.2211C73.2027 20.4971 73.8087 20.6351 74.4927 20.6351C75.0567 20.6351 75.5667 20.5391 76.0227 20.3471C76.4907 20.1551 76.8987 19.8671 77.2467 19.4831L78.2007 20.5991C77.7687 21.1031 77.2287 21.4871 76.5807 21.7511C75.9447 22.0151 75.2307 22.1471 74.4387 22.1471ZM81.2122 22.0391V12.4991H82.8682V15.0911L82.7062 14.4431C82.9702 13.7831 83.4142 13.2791 84.0382 12.9311C84.6622 12.5831 85.4302 12.4091 86.3422 12.4091V14.0831C86.2702 14.0711 86.1982 14.0651 86.1262 14.0651C86.0662 14.0651 86.0062 14.0651 85.9462 14.0651C85.0222 14.0651 84.2902 14.3411 83.7502 14.8931C83.2102 15.4451 82.9402 16.2431 82.9402 17.2871V22.0391H81.2122ZM92.6321 22.1471C91.6121 22.1471 90.7121 21.9371 89.9321 21.5171C89.1641 21.0971 88.5641 20.5211 88.1321 19.7891C87.7121 19.0571 87.5021 18.2171 87.5021 17.2691C87.5021 16.3211 87.7061 15.4811 88.1141 14.7491C88.5341 14.0171 89.1041 13.4471 89.8241 13.0391C90.5561 12.6191 91.3781 12.4091 92.2901 12.4091C93.2141 12.4091 94.0301 12.6131 94.7381 13.0211C95.4461 13.4291 95.9981 14.0051 96.3941 14.7491C96.8021 15.4811 97.0061 16.3391 97.0061 17.3231C97.0061 17.3951 97.0001 17.4791 96.9881 17.5751C96.9881 17.6711 96.9821 17.7611 96.9701 17.8451H88.8521V16.6031H96.0701L95.3681 17.0351C95.3801 16.4231 95.2541 15.8771 94.9901 15.3971C94.7261 14.9171 94.3601 14.5451 93.8921 14.2811C93.4361 14.0051 92.9021 13.8671 92.2901 13.8671C91.6901 13.8671 91.1561 14.0051 90.6881 14.2811C90.2201 14.5451 89.8541 14.9231 89.5901 15.4151C89.3261 15.8951 89.1941 16.4471 89.1941 17.0711V17.3591C89.1941 17.9951 89.3381 18.5651 89.6261 19.0691C89.9261 19.5611 90.3401 19.9451 90.8681 20.2211C91.3961 20.4971 92.0021 20.6351 92.6861 20.6351C93.2501 20.6351 93.7601 20.5391 94.2161 20.3471C94.6841 20.1551 95.0921 19.8671 95.4401 19.4831L96.3941 20.5991C95.9621 21.1031 95.4221 21.4871 94.7741 21.7511C94.1381 22.0151 93.4241 22.1471 92.6321 22.1471ZM103.42 22.1471C102.604 22.1471 101.884 21.9971 101.26 21.6971C100.648 21.3971 100.168 20.9411 99.8196 20.3291C99.4836 19.7051 99.3156 18.9251 99.3156 17.9891V12.4991H101.044V17.7911C101.044 18.7271 101.266 19.4291 101.71 19.8971C102.166 20.3651 102.802 20.5991 103.618 20.5991C104.218 20.5991 104.74 20.4791 105.184 20.2391C105.628 19.9871 105.97 19.6271 106.21 19.1591C106.45 18.6791 106.57 18.1031 106.57 17.4311V12.4991H108.298V22.0391H106.66V19.4651L106.93 20.1491C106.618 20.7851 106.15 21.2771 105.526 21.6251C104.902 21.9731 104.2 22.1471 103.42 22.1471ZM123.521 12.4091C124.289 12.4091 124.967 12.5591 125.555 12.8591C126.143 13.1591 126.599 13.6151 126.923 14.2271C127.259 14.8391 127.427 15.6131 127.427 16.5491V22.0391H125.699V16.7471C125.699 15.8231 125.483 15.1271 125.051 14.6591C124.619 14.1911 124.013 13.9571 123.233 13.9571C122.657 13.9571 122.153 14.0771 121.721 14.3171C121.289 14.5571 120.953 14.9111 120.713 15.3791C120.485 15.8471 120.371 16.4291 120.371 17.1251V22.0391H118.643V16.7471C118.643 15.8231 118.427 15.1271 117.995 14.6591C117.575 14.1911 116.969 13.9571 116.177 13.9571C115.613 13.9571 115.115 14.0771 114.683 14.3171C114.251 14.5571 113.915 14.9111 113.675 15.3791C113.435 15.8471 113.315 16.4291 113.315 17.1251V22.0391H111.587V12.4991H113.243V15.0371L112.973 14.3891C113.273 13.7651 113.735 13.2791 114.359 12.9311C114.983 12.5831 115.709 12.4091 116.537 12.4091C117.449 12.4091 118.235 12.6371 118.895 13.0931C119.555 13.5371 119.987 14.2151 120.191 15.1271L119.489 14.8391C119.777 14.1071 120.281 13.5191 121.001 13.0751C121.721 12.6311 122.561 12.4091 123.521 12.4091Z" fill="white"/>
<rect width="34" height="34" rx="17" fill="white"/>
<path d="M16.9974 2.55005L16.8118 3.18908V21.7322L16.9974 21.9199L25.4948 16.832L16.9974 2.55005Z" fill="#343434"/>
<path d="M16.9975 2.55005L8.5 16.832L16.9975 21.92V12.9197V2.55005Z" fill="#8C8C8C"/>
<path d="M16.9974 23.5496L16.8928 23.6787V30.2842L16.9974 30.5937L25.4999 18.4642L16.9974 23.5496Z" fill="#3C3C3B"/>
<path d="M16.9975 30.5935V23.5494L8.5 18.4641L16.9975 30.5935Z" fill="#8C8C8C"/>
<path d="M16.9974 21.9198L25.4948 16.832L16.9974 12.9197V21.9198Z" fill="#141414"/>
<path d="M8.50012 16.832L16.9975 21.9198V12.9197L8.50012 16.832Z" fill="#393939"/>
</svg>
