<svg width="112" height="34" viewBox="0 0 112 34" fill="none" xmlns="http://www.w3.org/2000/svg">
<g clip-path="url(#clip0_19_204)">
<circle cx="17" cy="17" r="16" fill="#D9D9D9"/>
<path d="M17 0C13.6377 0 10.3509 0.997033 7.55531 2.86502C4.75968 4.733 2.58075 7.38804 1.29406 10.4944C0.00736586 13.6007 -0.329291 17.0189 0.326658 20.3165C0.982607 23.6142 2.6017 26.6433 4.97919 29.0208C7.35668 31.3983 10.3858 33.0174 13.6835 33.6733C16.9811 34.3293 20.3993 33.9926 23.5056 32.7059C26.612 31.4193 29.267 29.2403 31.135 26.4447C33.003 23.6491 34 20.3623 34 17C34 12.4913 32.2089 8.1673 29.0208 4.97918C25.8327 1.79107 21.5087 0 17 0V0ZM16.6288 5.2105H20.2895C20.3644 5.21059 20.4382 5.22799 20.5053 5.26134C20.5723 5.29469 20.6308 5.34308 20.676 5.40273C20.7213 5.46239 20.7521 5.5317 20.7662 5.60526C20.7802 5.67881 20.7771 5.75461 20.757 5.82675L17.8812 15.6272L20.5799 14.8028L20.0019 16.7648L17.2763 17.5582L15.5083 23.528H24.9659C25.0409 23.5284 25.1147 23.5462 25.1817 23.5798C25.2486 23.6135 25.3069 23.6623 25.3519 23.7222C25.3969 23.7822 25.4274 23.8517 25.4411 23.9254C25.4547 23.9991 25.4511 24.075 25.4306 24.1471L24.6061 26.9804C24.5666 27.1152 24.4846 27.2336 24.3722 27.3179C24.2598 27.4021 24.1232 27.4478 23.9828 27.4479H9.53842L11.9793 19.2001L9.27917 20.0217L9.87417 18.0937L12.58 17.272L16.0112 5.68367C16.0488 5.54816 16.1296 5.42863 16.2413 5.34324C16.3531 5.25784 16.4896 5.21123 16.6303 5.2105H16.6288Z" fill="#2A8EEA"/>
</g>
<path d="M40.89 23V10.4H42.69V21.434H49.512V23H40.89ZM51.3255 23V13.46H53.0535V23H51.3255ZM52.1895 11.624C51.8535 11.624 51.5715 11.516 51.3435 11.3C51.1275 11.084 51.0195 10.82 51.0195 10.508C51.0195 10.184 51.1275 9.914 51.3435 9.698C51.5715 9.482 51.8535 9.374 52.1895 9.374C52.5255 9.374 52.8015 9.482 53.0175 9.698C53.2455 9.902 53.3595 10.16 53.3595 10.472C53.3595 10.796 53.2515 11.072 53.0355 11.3C52.8195 11.516 52.5375 11.624 52.1895 11.624ZM59.6288 23.108C58.6688 23.108 57.9248 22.85 57.3968 22.334C56.8688 21.818 56.6048 21.08 56.6048 20.12V11.372H58.3328V20.048C58.3328 20.564 58.4588 20.96 58.7108 21.236C58.9748 21.512 59.3468 21.65 59.8268 21.65C60.3668 21.65 60.8168 21.5 61.1768 21.2L61.7168 22.442C61.4528 22.67 61.1348 22.838 60.7628 22.946C60.4028 23.054 60.0248 23.108 59.6288 23.108ZM54.9848 14.882V13.46H61.0688V14.882H54.9848ZM67.7376 23.108C66.7176 23.108 65.8176 22.898 65.0376 22.478C64.2696 22.058 63.6696 21.482 63.2376 20.75C62.8176 20.018 62.6076 19.178 62.6076 18.23C62.6076 17.282 62.8116 16.442 63.2196 15.71C63.6396 14.978 64.2096 14.408 64.9296 14C65.6616 13.58 66.4836 13.37 67.3956 13.37C68.3196 13.37 69.1356 13.574 69.8436 13.982C70.5516 14.39 71.1036 14.966 71.4996 15.71C71.9076 16.442 72.1116 17.3 72.1116 18.284C72.1116 18.356 72.1056 18.44 72.0936 18.536C72.0936 18.632 72.0876 18.722 72.0756 18.806H63.9576V17.564H71.1756L70.4736 17.996C70.4856 17.384 70.3596 16.838 70.0956 16.358C69.8316 15.878 69.4656 15.506 68.9976 15.242C68.5416 14.966 68.0076 14.828 67.3956 14.828C66.7956 14.828 66.2616 14.966 65.7936 15.242C65.3256 15.506 64.9596 15.884 64.6956 16.376C64.4316 16.856 64.2996 17.408 64.2996 18.032V18.32C64.2996 18.956 64.4436 19.526 64.7316 20.03C65.0316 20.522 65.4456 20.906 65.9736 21.182C66.5016 21.458 67.1076 21.596 67.7916 21.596C68.3556 21.596 68.8656 21.5 69.3216 21.308C69.7896 21.116 70.1976 20.828 70.5456 20.444L71.4996 21.56C71.0676 22.064 70.5276 22.448 69.8796 22.712C69.2436 22.976 68.5296 23.108 67.7376 23.108ZM78.669 23.108C77.697 23.108 76.827 22.898 76.059 22.478C75.303 22.058 74.709 21.482 74.277 20.75C73.845 20.018 73.629 19.178 73.629 18.23C73.629 17.282 73.845 16.442 74.277 15.71C74.709 14.978 75.303 14.408 76.059 14C76.827 13.58 77.697 13.37 78.669 13.37C79.533 13.37 80.301 13.544 80.973 13.892C81.657 14.228 82.185 14.732 82.557 15.404L81.243 16.25C80.931 15.782 80.547 15.44 80.091 15.224C79.647 14.996 79.167 14.882 78.651 14.882C78.027 14.882 77.469 15.02 76.977 15.296C76.485 15.572 76.095 15.962 75.807 16.466C75.519 16.958 75.375 17.546 75.375 18.23C75.375 18.914 75.519 19.508 75.807 20.012C76.095 20.516 76.485 20.906 76.977 21.182C77.469 21.458 78.027 21.596 78.651 21.596C79.167 21.596 79.647 21.488 80.091 21.272C80.547 21.044 80.931 20.696 81.243 20.228L82.557 21.056C82.185 21.716 81.657 22.226 80.973 22.586C80.301 22.934 79.533 23.108 78.669 23.108ZM88.7396 23.108C87.7796 23.108 86.9276 22.898 86.1836 22.478C85.4396 22.058 84.8516 21.482 84.4196 20.75C83.9876 20.006 83.7716 19.166 83.7716 18.23C83.7716 17.282 83.9876 16.442 84.4196 15.71C84.8516 14.978 85.4396 14.408 86.1836 14C86.9276 13.58 87.7796 13.37 88.7396 13.37C89.6876 13.37 90.5336 13.58 91.2776 14C92.0336 14.408 92.6216 14.978 93.0416 15.71C93.4736 16.43 93.6896 17.27 93.6896 18.23C93.6896 19.178 93.4736 20.018 93.0416 20.75C92.6216 21.482 92.0336 22.058 91.2776 22.478C90.5336 22.898 89.6876 23.108 88.7396 23.108ZM88.7396 21.596C89.3516 21.596 89.8976 21.458 90.3776 21.182C90.8696 20.906 91.2536 20.516 91.5296 20.012C91.8056 19.496 91.9436 18.902 91.9436 18.23C91.9436 17.546 91.8056 16.958 91.5296 16.466C91.2536 15.962 90.8696 15.572 90.3776 15.296C89.8976 15.02 89.3516 14.882 88.7396 14.882C88.1276 14.882 87.5816 15.02 87.1016 15.296C86.6216 15.572 86.2376 15.962 85.9496 16.466C85.6616 16.958 85.5176 17.546 85.5176 18.23C85.5176 18.902 85.6616 19.496 85.9496 20.012C86.2376 20.516 86.6216 20.906 87.1016 21.182C87.5816 21.458 88.1276 21.596 88.7396 21.596ZM96.0794 23V13.46H97.8074V23H96.0794ZM96.9434 11.624C96.6074 11.624 96.3254 11.516 96.0974 11.3C95.8814 11.084 95.7734 10.82 95.7734 10.508C95.7734 10.184 95.8814 9.914 96.0974 9.698C96.3254 9.482 96.6074 9.374 96.9434 9.374C97.2794 9.374 97.5554 9.482 97.7714 9.698C97.9994 9.902 98.1134 10.16 98.1134 10.472C98.1134 10.796 98.0054 11.072 97.7894 11.3C97.5734 11.516 97.2914 11.624 96.9434 11.624ZM106.201 13.37C106.981 13.37 107.665 13.52 108.253 13.82C108.853 14.12 109.321 14.576 109.657 15.188C109.993 15.8 110.161 16.574 110.161 17.51V23H108.433V17.708C108.433 16.784 108.205 16.088 107.749 15.62C107.305 15.152 106.675 14.918 105.859 14.918C105.247 14.918 104.713 15.038 104.257 15.278C103.801 15.518 103.447 15.872 103.195 16.34C102.955 16.808 102.835 17.39 102.835 18.086V23H101.107V13.46H102.763V16.034L102.493 15.35C102.805 14.726 103.285 14.24 103.933 13.892C104.581 13.544 105.337 13.37 106.201 13.37Z" fill="white"/>
<defs>
<clipPath id="clip0_19_204">
<rect width="34" height="34" fill="white"/>
</clipPath>
</defs>
</svg>
