<svg width="46" height="46" viewBox="0 0 46 46" fill="none" xmlns="http://www.w3.org/2000/svg">
<rect width="46" height="46" rx="23" fill="url(#paint0_linear_13_21)"/>
<path d="M29.75 29.75L26.3855 26.3795M28.25 21.875C28.25 23.5658 27.5784 25.1873 26.3828 26.3828C25.1873 27.5784 23.5658 28.25 21.875 28.25C20.1842 28.25 18.5627 27.5784 17.3672 26.3828C16.1716 25.1873 15.5 23.5658 15.5 21.875C15.5 20.1842 16.1716 18.5627 17.3672 17.3672C18.5627 16.1716 20.1842 15.5 21.875 15.5C23.5658 15.5 25.1873 16.1716 26.3828 17.3672C27.5784 18.5627 28.25 20.1842 28.25 21.875V21.875Z" stroke="#0C0C0C" stroke-width="2" stroke-linecap="round"/>
<defs>
<linearGradient id="paint0_linear_13_21" x1="46" y1="16" x2="4.5" y2="36" gradientUnits="userSpaceOnUse">
<stop stop-color="#5891FF"/>
<stop offset="1" stop-color="#C6A5F1"/>
</linearGradient>
</defs>
</svg>
