<svg width="90" height="28" viewBox="0 0 90 28" fill="none" xmlns="http://www.w3.org/2000/svg">
<path d="M29.89 18.5V5.9H34.804C35.908 5.9 36.85 6.074 37.63 6.422C38.41 6.77 39.01 7.274 39.43 7.934C39.85 8.594 40.06 9.38 40.06 10.292C40.06 11.204 39.85 11.99 39.43 12.65C39.01 13.298 38.41 13.802 37.63 14.162C36.85 14.51 35.908 14.684 34.804 14.684H30.88L31.69 13.838V18.5H29.89ZM31.69 14.018L30.88 13.118H34.75C35.902 13.118 36.772 12.872 37.36 12.38C37.96 11.888 38.26 11.192 38.26 10.292C38.26 9.392 37.96 8.696 37.36 8.204C36.772 7.712 35.902 7.466 34.75 7.466H30.88L31.69 6.566V14.018ZM48.2866 18.5V16.484L48.1966 16.106V12.668C48.1966 11.936 47.9806 11.372 47.5486 10.976C47.1286 10.568 46.4926 10.364 45.6406 10.364C45.0766 10.364 44.5246 10.46 43.9846 10.652C43.4446 10.832 42.9886 11.078 42.6166 11.39L41.8966 10.094C42.3886 9.698 42.9766 9.398 43.6606 9.194C44.3566 8.978 45.0826 8.87 45.8386 8.87C47.1466 8.87 48.1546 9.188 48.8626 9.824C49.5706 10.46 49.9246 11.432 49.9246 12.74V18.5H48.2866ZM45.1546 18.608C44.4466 18.608 43.8226 18.488 43.2826 18.248C42.7546 18.008 42.3466 17.678 42.0586 17.258C41.7706 16.826 41.6266 16.34 41.6266 15.8C41.6266 15.284 41.7466 14.816 41.9866 14.396C42.2386 13.976 42.6406 13.64 43.1926 13.388C43.7566 13.136 44.5126 13.01 45.4606 13.01H48.4846V14.252H45.5326C44.6686 14.252 44.0866 14.396 43.7866 14.684C43.4866 14.972 43.3366 15.32 43.3366 15.728C43.3366 16.196 43.5226 16.574 43.8946 16.862C44.2666 17.138 44.7826 17.276 45.4426 17.276C46.0906 17.276 46.6546 17.132 47.1346 16.844C47.6266 16.556 47.9806 16.136 48.1966 15.584L48.5386 16.772C48.3106 17.336 47.9086 17.786 47.3326 18.122C46.7566 18.446 46.0306 18.608 45.1546 18.608ZM53.3606 22.1C52.9046 22.1 52.4606 22.022 52.0286 21.866C51.5966 21.722 51.2246 21.506 50.9126 21.218L51.6506 19.922C51.8906 20.15 52.1546 20.324 52.4426 20.444C52.7306 20.564 53.0366 20.624 53.3606 20.624C53.7806 20.624 54.1286 20.516 54.4046 20.3C54.6806 20.084 54.9386 19.7 55.1786 19.148L55.7726 17.834L55.9526 17.618L59.6966 8.96H61.3886L56.7626 19.454C56.4866 20.126 56.1746 20.654 55.8266 21.038C55.4906 21.422 55.1186 21.692 54.7106 21.848C54.3026 22.016 53.8526 22.1 53.3606 22.1ZM55.6286 18.806L51.2726 8.96H53.0726L56.7806 17.456L55.6286 18.806ZM63.2533 18.5V5.9H68.1673C69.2713 5.9 70.2133 6.074 70.9933 6.422C71.7733 6.77 72.3733 7.274 72.7933 7.934C73.2133 8.594 73.4233 9.38 73.4233 10.292C73.4233 11.204 73.2133 11.99 72.7933 12.65C72.3733 13.298 71.7733 13.802 70.9933 14.162C70.2133 14.51 69.2713 14.684 68.1673 14.684H64.2433L65.0533 13.838V18.5H63.2533ZM65.0533 14.018L64.2433 13.118H68.1133C69.2653 13.118 70.1353 12.872 70.7233 12.38C71.3233 11.888 71.6233 11.192 71.6233 10.292C71.6233 9.392 71.3233 8.696 70.7233 8.204C70.1353 7.712 69.2653 7.466 68.1133 7.466H64.2433L65.0533 6.566V14.018ZM81.6498 18.5V16.484L81.5598 16.106V12.668C81.5598 11.936 81.3438 11.372 80.9118 10.976C80.4918 10.568 79.8558 10.364 79.0038 10.364C78.4398 10.364 77.8878 10.46 77.3478 10.652C76.8078 10.832 76.3518 11.078 75.9798 11.39L75.2598 10.094C75.7518 9.698 76.3398 9.398 77.0238 9.194C77.7198 8.978 78.4458 8.87 79.2018 8.87C80.5098 8.87 81.5178 9.188 82.2258 9.824C82.9338 10.46 83.2878 11.432 83.2878 12.74V18.5H81.6498ZM78.5178 18.608C77.8098 18.608 77.1858 18.488 76.6458 18.248C76.1178 18.008 75.7098 17.678 75.4218 17.258C75.1338 16.826 74.9898 16.34 74.9898 15.8C74.9898 15.284 75.1098 14.816 75.3498 14.396C75.6018 13.976 76.0038 13.64 76.5558 13.388C77.1198 13.136 77.8758 13.01 78.8238 13.01H81.8478V14.252H78.8958C78.0318 14.252 77.4498 14.396 77.1498 14.684C76.8498 14.972 76.6998 15.32 76.6998 15.728C76.6998 16.196 76.8858 16.574 77.2578 16.862C77.6298 17.138 78.1458 17.276 78.8058 17.276C79.4538 17.276 80.0178 17.132 80.4978 16.844C80.9898 16.556 81.3438 16.136 81.5598 15.584L81.9018 16.772C81.6738 17.336 81.2718 17.786 80.6958 18.122C80.1198 18.446 79.3938 18.608 78.5178 18.608ZM86.4857 18.5V5.144H88.2137V18.5H86.4857Z" fill="white"/>
<g clip-path="url(#clip0_19_212)">
<path d="M19.5112 2.17948C18.2593 0.706982 15.9964 0.0756836 13.1013 0.0756836H4.69913C4.4127 0.0756945 4.13566 0.181151 3.91783 0.373093C3.7 0.565035 3.55566 0.830872 3.51077 1.12281L0.0122525 24.0204C-0.0572865 24.4719 0.281514 24.8808 0.724983 24.8808H5.9122L7.21494 16.3537L7.17451 16.6207C7.26731 16.018 7.76685 15.5734 8.35838 15.5734H10.8233C15.6657 15.5734 19.4574 13.5437 20.565 7.67212C20.5979 7.49847 20.6264 7.32945 20.651 7.16432C20.5112 7.08792 20.5112 7.08792 20.651 7.16432C20.9808 4.99413 20.6487 3.5169 19.5112 2.17948" fill="#27346A"/>
<path d="M9.19977 6.38254C9.34158 6.31286 9.49668 6.27675 9.65375 6.27685H16.2409C17.0209 6.27685 17.7485 6.32923 18.4133 6.43966C18.5994 6.47027 18.7844 6.50682 18.9683 6.54925C19.2289 6.60858 19.4864 6.68121 19.7401 6.76685C20.0669 6.8795 20.3713 7.01069 20.6511 7.16432C20.9808 4.9933 20.6487 3.5169 19.5112 2.17948C18.2586 0.706982 15.9964 0.0756836 13.1013 0.0756836H4.69841C4.10679 0.0756836 3.60349 0.52016 3.51077 1.12281L0.012253 24.0196C-0.057286 24.4718 0.281515 24.8802 0.724265 24.8802H5.9122L8.61497 7.19288C8.64155 7.01902 8.70866 6.85444 8.81053 6.71328C8.91239 6.57213 9.04597 6.45862 9.19977 6.38254V6.38254Z" fill="#27346A"/>
<path d="M20.565 7.67211C19.4574 13.5428 15.6658 15.5734 10.8233 15.5734H8.35766C7.76612 15.5734 7.2665 16.018 7.17459 16.6207L5.5539 27.2232C5.49335 27.6183 5.78947 27.9764 6.17688 27.9764H10.5496C10.8001 27.9763 11.0423 27.884 11.2327 27.7161C11.4232 27.5482 11.5493 27.3157 11.5884 27.0603L11.631 26.8304L12.4552 21.4403L12.5083 21.1424C12.5474 20.8871 12.6735 20.6546 12.8639 20.4867C13.0543 20.3188 13.2966 20.2265 13.547 20.2264H14.2015C18.4373 20.2264 21.7541 18.4505 22.7233 13.3145C23.1279 11.1681 22.9185 9.37612 21.8483 8.11742C21.5237 7.73617 21.1206 7.42131 20.651 7.16431C20.6256 7.33027 20.598 7.49845 20.565 7.67211V7.67211Z" fill="#2790C3"/>
<path d="M19.4918 6.68737C19.3191 6.63533 19.1447 6.58926 18.969 6.54923C18.7851 6.50749 18.6 6.47119 18.4141 6.44038C17.7485 6.32921 17.0215 6.27674 16.2408 6.27674H9.65441C9.49722 6.27637 9.342 6.31279 9.20043 6.38327C9.04646 6.45911 8.91273 6.57255 8.81082 6.71374C8.70891 6.85494 8.64188 7.01965 8.61555 7.1936L7.2156 16.3537L7.17517 16.6207C7.26726 16.018 7.76679 15.5734 8.35841 15.5734H10.8241C15.6665 15.5734 19.4581 13.5437 20.5657 7.6721C20.5986 7.49844 20.6263 7.33017 20.6517 7.1643C20.3712 7.0115 20.0677 6.87948 19.7407 6.76757C19.6582 6.73935 19.5753 6.71261 19.4919 6.68737" fill="#1F264F"/>
</g>
<defs>
<clipPath id="clip0_19_212">
<rect width="23" height="28" fill="white"/>
</clipPath>
</defs>
</svg>
