<svg width="20" height="21" viewBox="0 0 20 21" fill="none" xmlns="http://www.w3.org/2000/svg">
<path d="M7.8125 17.375C7.8125 17.684 7.72086 17.9861 7.54917 18.2431C7.37748 18.5 7.13345 18.7003 6.84794 18.8186C6.56243 18.9368 6.24827 18.9678 5.94517 18.9075C5.64208 18.8472 5.36366 18.6984 5.14514 18.4799C4.92663 18.2613 4.77781 17.9829 4.71752 17.6798C4.65723 17.3767 4.68818 17.0626 4.80644 16.7771C4.9247 16.4915 5.12497 16.2475 5.38192 16.0758C5.63887 15.9041 5.94097 15.8125 6.25 15.8125C6.66377 15.8146 7.06 15.9798 7.35258 16.2724C7.64517 16.565 7.81045 16.9612 7.8125 17.375ZM14.375 15.8125C14.066 15.8125 13.7639 15.9041 13.5069 16.0758C13.25 16.2475 13.0497 16.4915 12.9314 16.7771C12.8132 17.0626 12.7822 17.3767 12.8425 17.6798C12.9028 17.9829 13.0516 18.2613 13.2701 18.4799C13.4887 18.6984 13.7671 18.8472 14.0702 18.9075C14.3733 18.9678 14.6874 18.9368 14.9729 18.8186C15.2585 18.7003 15.5025 18.5 15.6742 18.2431C15.8459 17.9861 15.9375 17.684 15.9375 17.375C15.9354 16.9612 15.7702 16.565 15.4776 16.2724C15.185 15.9798 14.7888 15.8146 14.375 15.8125ZM18.2266 6.38281L16.3359 12.9766C16.2042 13.4326 15.9282 13.8336 15.5493 14.1195C15.1704 14.4055 14.709 14.5609 14.2344 14.5625H6.39062C5.91596 14.5609 5.4546 14.4055 5.07571 14.1195C4.69683 13.8336 4.42082 13.4326 4.28906 12.9766L2.40625 6.39844C2.40625 6.39062 2.39844 6.375 2.39844 6.36719L1.70312 3.9375H0.9375C0.688859 3.9375 0.450403 3.83873 0.274587 3.66291C0.098772 3.4871 0 3.24864 0 3C0 2.75136 0.098772 2.5129 0.274587 2.33709C0.450403 2.16127 0.688859 2.0625 0.9375 2.0625H1.9375C2.27697 2.06507 2.60667 2.17651 2.87808 2.38043C3.1495 2.58435 3.34833 2.86998 3.44531 3.19531L4.00781 5.1875H17.3203C17.4653 5.18833 17.6082 5.22251 17.7379 5.28739C17.8676 5.35227 17.9806 5.44612 18.0682 5.56168C18.1558 5.67723 18.2157 5.81139 18.2431 5.95378C18.2706 6.09617 18.2649 6.24297 18.2266 6.38281ZM16.0781 7.0625H4.54687L6.08594 12.4609C6.10593 12.5263 6.14628 12.5835 6.20109 12.6242C6.25591 12.665 6.32232 12.6872 6.39062 12.6875H14.2344C14.3027 12.6872 14.3691 12.665 14.4239 12.6242C14.4787 12.5835 14.5191 12.5263 14.5391 12.4609L16.0781 7.0625Z" fill="#FEFEFE"/>
</svg>
